<svg xmlns="http://www.w3.org/2000/svg" width="1200" height="800" viewBox="0 0 1200 800"><rect width="1200" height="800" fill="#fcfbf7" rx="48"/><rect width="1088" height="688" x="56" y="56" fill="#fff" stroke="#dfe3e6" stroke-width="2" rx="30"/><image width="48" height="48" x="95" y="96" href="syndiqo-mark.svg"/><text x="164" y="132" fill="#10223f" font-family="Arial, Helvetica, sans-serif" font-size="28" font-weight="700">Syndiqo Tower / Residence 4B</text><text x="95" y="206" fill="#03aded" font-family="monospace" font-size="18" letter-spacing="3">THE GALLERY · 96 M² · SOUTH-WEST</text><g fill="none" stroke="#10223f" stroke-width="4"><path d="M0 0h535v390H0zM220 0v225M0 225h535M385 225v165M220 110h165M90 225v165" transform="translate(98 262)"/><path stroke="#03aded" stroke-width="12" d="M535 45h90v270h-90" transform="translate(98 262)"/><path stroke="#607086" stroke-width="2" d="M32 32h152v158H32zM252 32h101v45H252zM252 110h101v80H252zM417 257h86v101h-86z" transform="translate(98 262)"/></g><g font-family="Arial, Helvetica, sans-serif"><text x="795" y="275" fill="#607086" font-size="18">RESIDENCE DETAILS</text><text x="795" y="340" fill="#10223f" font-size="38" font-weight="600">2 bedrooms</text><text x="795" y="396" fill="#10223f" font-size="38" font-weight="600">2 bathrooms</text><text x="795" y="452" fill="#10223f" font-size="38" font-weight="600">River + city</text><rect width="255" height="70" x="795" y="530" fill="#147fb0" rx="35"/><text x="835" y="574" fill="#fff" font-size="22" font-weight="600">Explore in 3D</text></g></svg>